<?xml version="1.0" standalone="no"?>
<!DOCTYPE svg PUBLIC "-//W3C//DTD SVG 1.0//EN" "http://www.w3.org/TR/2001/REC-SVG-20010904/DTD/svg10.dtd">
<svg xmlns="http://www.w3.org/2000/svg" xmlns:xlink="http://www.w3.org/1999/xlink" id="body_1" width="180" height="120">

<g transform="matrix(0.119085185 0 0 0.119085185 49.908524 19.887226)">
	<g>
        <path d="M335.895 0C 244.67099 0 233.232 0.387 197.40498 2.021C 161.65298 3.652 137.236 9.330999 115.86998 17.633C 93.78198 26.217 75.04998 37.703 56.37698 56.376C 37.70298 75.048996 26.21698 93.783005 17.63398 115.871C 9.33 137.236 3.653 161.653 2.02 197.405C 0.386 233.232 0 244.671 0 335.895C 0 427.117 0.386 438.556 2.02 474.383C 3.6529999 510.135 9.33 534.552 17.634 555.917C 26.218 578.005 37.704002 596.737 56.377 615.412C 75.050995 634.08496 93.782 645.571 115.869995 654.15497C 137.236 662.457 161.653 668.13495 197.405 669.76697C 233.232 671.40094 244.67099 671.78796 335.89502 671.78796C 427.117 671.78796 438.55603 671.40094 474.38303 669.76697C 510.135 668.136 534.552 662.457 555.917 654.15497C 578.005 645.571 596.737 634.08496 615.412 615.412C 634.08496 596.737 645.571 578.005 654.15497 555.917C 662.457 534.552 668.136 510.13498 669.76697 474.383C 671.40094 438.556 671.78796 427.117 671.78796 335.895C 671.78796 244.67099 671.40094 233.232 669.76697 197.40498C 668.136 161.65298 662.457 137.236 654.15497 115.87099C 645.571 93.78299 634.08496 75.04899 615.412 56.375988C 596.737 37.702988 578.005 26.216988 555.917 17.632988C 534.552 9.330988 510.13498 3.651988 474.383 2.0209875C 438.556 0.387 427.117 0 335.895 0zM335.895 60.521C 425.581 60.521 436.205 60.864 471.624 62.48C 504.374 63.973 522.159 69.445 533.994 74.045C 549.674 80.139 560.86304 87.417 572.616 99.171C 584.37103 110.924995 591.64905 122.115 597.74304 137.793C 602.343 149.629 607.81506 167.415 609.30804 200.164C 610.9241 235.58301 611.267 246.207 611.267 335.89398C 611.267 425.581 610.924 436.205 609.30804 471.62396C 607.81506 504.37396 602.343 522.15894 597.74304 533.99396C 591.64905 549.67395 584.37103 560.863 572.616 572.61597C 560.86304 584.371 549.67303 591.649 533.99506 597.743C 522.15906 602.34296 504.37305 607.815 471.62405 609.308C 436.21106 610.924 425.58804 611.26697 335.89404 611.26697C 246.20004 611.26697 235.57904 610.92395 200.16405 609.30695C 167.41405 607.81494 149.62904 602.34296 137.79405 597.7429C 122.11405 591.6489 110.92505 584.3709 99.17205 572.6159C 87.41805 560.8629 80.13905 549.6729 74.04505 533.99493C 69.44505 522.15894 63.974052 504.37292 62.480053 471.62393C 60.86405 436.20493 60.521053 425.58093 60.521053 335.89392C 60.521053 246.20692 60.86405 235.58292 62.480053 200.16393C 63.974052 167.41393 69.44505 149.62892 74.04505 137.79393C 80.13905 122.11393 87.41805 110.92493 99.17105 99.17193C 110.92505 87.41693 122.11505 80.13893 137.79306 74.04493C 149.62906 69.44493 167.41505 63.97293 200.16406 62.47993C 235.58307 60.86393 246.20706 60.52093 335.89404 60.52093" stroke="none" fill="#FFFFFF" fill-rule="nonzero" />
        <path d="M335.895 447.859C 274.05698 447.859 223.92899 397.73102 223.92899 335.89502C 223.92899 274.057 274.05698 223.92902 335.895 223.92902C 397.731 223.92902 447.85898 274.057 447.85898 335.89502C 447.85898 397.73102 397.731 447.859 335.895 447.859zM335.895 163.40802C 240.63199 163.40802 163.40799 240.63202 163.40799 335.89502C 163.40799 431.156 240.63199 508.38 335.895 508.38C 431.156 508.38 508.38 431.156 508.38 335.89502C 508.38 240.63202 431.156 163.40802 335.89502 163.40802M555.50305 156.59302C 555.50305 178.85501 537.45605 196.90002 515.19507 196.90002C 492.93506 196.90002 474.88806 178.85503 474.88806 156.59302C 474.88806 134.33202 492.93506 116.28502 515.19507 116.28502C 537.45605 116.28502 555.50305 134.33202 555.50305 156.59302" stroke="none" fill="#FFFFFF" fill-rule="nonzero" />
	</g>
</g>
</svg>